<svg id="visual" viewBox="0 0 960 540" width="960" height="540" xmlns="http://www.w3.org/2000/svg" xmlns:xlink="http://www.w3.org/1999/xlink" version="1.1"><path d="M0 71L14.5 76.5C29 82 58 93 87.2 91.2C116.3 89.3 145.7 74.7 174.8 66.5C204 58.3 233 56.7 262 56.7C291 56.7 320 58.3 349 65.5C378 72.7 407 85.3 436.2 90.8C465.3 96.3 494.7 94.7 523.8 92C553 89.3 582 85.7 611 83.8C640 82 669 82 698 84.7C727 87.3 756 92.7 785.2 94.5C814.3 96.3 843.7 94.7 872.8 94.7C902 94.7 931 96.3 945.5 97.2L960 98L960 0L945.5 0C931 0 902 0 872.8 0C843.7 0 814.3 0 785.2 0C756 0 727 0 698 0C669 0 640 0 611 0C582 0 553 0 523.8 0C494.7 0 465.3 0 436.2 0C407 0 378 0 349 0C320 0 291 0 262 0C233 0 204 0 174.8 0C145.7 0 116.3 0 87.2 0C58 0 29 0 14.5 0L0 0Z" fill="#377ebb"></path><path d="M0 195L14.5 198.7C29 202.3 58 209.7 87.2 209.7C116.3 209.7 145.7 202.3 174.8 196C204 189.7 233 184.3 262 175.3C291 166.3 320 153.7 349 151.8C378 150 407 159 436.2 164.5C465.3 170 494.7 172 523.8 170.3C553 168.7 582 163.3 611 165.2C640 167 669 176 698 182.2C727 188.3 756 191.7 785.2 185.3C814.3 179 843.7 163 872.8 165.8C902 168.7 931 190.3 945.5 201.2L960 212L960 96L945.5 95.2C931 94.3 902 92.7 872.8 92.7C843.7 92.7 814.3 94.3 785.2 92.5C756 90.7 727 85.3 698 82.7C669 80 640 80 611 81.8C582 83.7 553 87.3 523.8 90C494.7 92.7 465.3 94.3 436.2 88.8C407 83.3 378 70.7 349 63.5C320 56.3 291 54.7 262 54.7C233 54.7 204 56.3 174.8 64.5C145.7 72.7 116.3 87.3 87.2 89.2C58 91 29 80 14.5 74.5L0 69Z" fill="#4395d9"></path><path d="M0 368L14.5 368C29 368 58 368 87.2 367.2C116.3 366.3 145.7 364.7 174.8 347.7C204 330.7 233 298.3 262 292.8C291 287.3 320 308.7 349 316.7C378 324.7 407 319.3 436.2 324.8C465.3 330.3 494.7 346.7 523.8 338.7C553 330.7 582 298.3 611 292.8C640 287.3 669 308.7 698 314.8C727 321 756 312 785.2 304C814.3 296 843.7 289 872.8 291.8C902 294.7 931 307.3 945.5 313.7L960 320L960 210L945.5 199.2C931 188.3 902 166.7 872.8 163.8C843.7 161 814.3 177 785.2 183.3C756 189.7 727 186.3 698 180.2C669 174 640 165 611 163.2C582 161.3 553 166.7 523.8 168.3C494.7 170 465.3 168 436.2 162.5C407 157 378 148 349 149.8C320 151.7 291 164.3 262 173.3C233 182.3 204 187.7 174.8 194C145.7 200.3 116.3 207.7 87.2 207.7C58 207.7 29 200.3 14.5 196.7L0 193Z" fill="#4facf7"></path><path d="M0 460L14.5 460.8C29 461.7 58 463.3 87.2 466C116.3 468.7 145.7 472.3 174.8 472.3C204 472.3 233 468.7 262 473.2C291 477.7 320 490.3 349 495.8C378 501.3 407 499.7 436.2 491.7C465.3 483.7 494.7 469.3 523.8 462.2C553 455 582 455 611 457.7C640 460.3 669 465.7 698 471C727 476.3 756 481.7 785.2 479.8C814.3 478 843.7 469 872.8 465.3C902 461.7 931 463.3 945.5 464.2L960 465L960 318L945.5 311.7C931 305.3 902 292.7 872.8 289.8C843.7 287 814.3 294 785.2 302C756 310 727 319 698 312.8C669 306.7 640 285.3 611 290.8C582 296.3 553 328.7 523.8 336.7C494.7 344.7 465.3 328.3 436.2 322.8C407 317.3 378 322.7 349 314.7C320 306.7 291 285.3 262 290.8C233 296.3 204 328.7 174.8 345.7C145.7 362.7 116.3 364.3 87.2 365.2C58 366 29 366 14.5 366L0 366Z" fill="#6fb9f8"></path><path d="M0 541L14.5 541C29 541 58 541 87.2 541C116.3 541 145.7 541 174.8 541C204 541 233 541 262 541C291 541 320 541 349 541C378 541 407 541 436.2 541C465.3 541 494.7 541 523.8 541C553 541 582 541 611 541C640 541 669 541 698 541C727 541 756 541 785.2 541C814.3 541 843.7 541 872.8 541C902 541 931 541 945.5 541L960 541L960 463L945.5 462.2C931 461.3 902 459.7 872.8 463.3C843.7 467 814.3 476 785.2 477.8C756 479.7 727 474.3 698 469C669 463.7 640 458.3 611 455.7C582 453 553 453 523.8 460.2C494.7 467.3 465.3 481.7 436.2 489.7C407 497.7 378 499.3 349 493.8C320 488.3 291 475.7 262 471.2C233 466.7 204 470.3 174.8 470.3C145.7 470.3 116.3 466.7 87.2 464C58 461.3 29 459.7 14.5 458.8L0 458Z" fill="#8bc6f9"></path></svg>